<svg height="512pt" viewBox="-81 0 512 512.00001" width="512pt" xmlns="http://www.w3.org/2000/svg"><path d="m0 0h350.671875v481.996094h-350.671875zm0 0" fill="#faecd9"/><path d="m59.113281 161.21875h144.800781v30h-144.800781zm0 0" fill="#8dda5c"/><path d="m233.914062 161.21875h53.507813v30h-53.507813zm0 0" fill="#41a772"/><path d="m59.113281 221.222656h144.800781v30h-144.800781zm0 0" fill="#8dda5c"/><path d="m233.914062 221.222656h53.507813v30h-53.507813zm0 0" fill="#41a772"/><path d="m59.113281 281.226562h144.800781v30h-144.800781zm0 0" fill="#8dda5c"/><path d="m233.914062 281.226562h53.507813v30h-53.507813zm0 0" fill="#41a772"/><path d="m59.113281 341.230469h144.800781v30h-144.800781zm0 0" fill="#8dda5c"/><path d="m233.914062 341.230469h53.507813v30h-53.507813zm0 0" fill="#41a772"/><path d="m174.914062 0h175.761719v481.996094h-175.761719zm0 0" fill="#f8d8b6"/><path d="m59.113281 161.21875h144.800781v30h-144.800781zm0 0" fill="#8dda5c"/><path d="m233.914062 161.21875h53.507813v30h-53.507813zm0 0" fill="#41a772"/><path d="m59.113281 221.222656h144.800781v30h-144.800781zm0 0" fill="#8dda5c"/><path d="m233.914062 221.222656h53.507813v30h-53.507813zm0 0" fill="#41a772"/><path d="m59.113281 281.226562h144.800781v30h-144.800781zm0 0" fill="#8dda5c"/><path d="m233.914062 281.226562h53.507813v30h-53.507813zm0 0" fill="#41a772"/><path d="m59.113281 341.230469h144.800781v30h-144.800781zm0 0" fill="#8dda5c"/><g fill="#61c27a"><path d="m174.914062 161.21875h29v30h-29zm0 0"/><path d="m174.914062 221.222656h29v30h-29zm0 0"/><path d="m174.914062 281.226562h29v30h-29zm0 0"/><path d="m174.914062 341.230469h29v30h-29zm0 0"/></g><path d="m233.914062 341.230469h53.507813v30h-53.507813zm0 0" fill="#41a772"/><path d="m102.710938 112.929688-.140626-22.460938-10.703124 18.023438h-7.320313l-10.703125-17.25v21.6875h-15.136719v-49.285157h13.65625l16.050781 26.261719 15.632813-26.261719h13.65625l.140625 49.285157zm0 0" fill="#f95a5a"/><path d="m170.371094 100.398438v12.53125h-40.976563v-49.285157h40.0625v12.535157h-23.726562v5.769531h20.839843v11.972656h-20.839843v6.476563zm0 0" fill="#f95a5a"/><path d="m228.878906 63.644531v49.285157h-13.65625l-18.730468-22.390626v22.390626h-16.191407v-49.285157h13.660157l18.726562 22.390625v-22.390625zm0 0" fill="#f95a5a"/><path d="m240.003906 90.753906v-27.109375h16.613282v26.613281c0 7.535157 2.890624 10.351563 7.535156 10.351563 4.644531 0 7.53125-2.816406 7.53125-10.351563v-26.613281h16.335937v27.105469c0 14.785156-8.871093 23.304688-24.007812 23.304688s-24.007813-8.519532-24.007813-23.300782zm0 0" fill="#f95a5a"/><path d="m228.878906 63.644531v49.285157h-13.65625l-18.730468-22.390626v22.390626h-16.191407v-49.285157h13.660157l18.726562 22.390625v-22.390625zm0 0" fill="#f9235e"/><path d="m240.003906 90.753906v-27.109375h16.613282v26.613281c0 7.535157 2.890624 10.351563 7.535156 10.351563 4.644531 0 7.53125-2.816406 7.53125-10.351563v-26.613281h16.335937v27.105469c0 14.785156-8.871093 23.304688-24.007812 23.304688s-24.007813-8.519532-24.007813-23.300782zm0 0" fill="#f9235e"/><path d="m79.277344 406.796875h191.277344v105.203125h-191.277344zm0 0" fill="#b57548"/><path d="m174.914062 406.796875h95.640626v105.203125h-95.640626zm0 0" fill="#a0401a"/></svg>